<svg width="24" height="24" viewBox="0 0 24 24" fill="none" xmlns="http://www.w3.org/2000/svg">
<g id="Frame">
<path id="Vector" d="M3.75 21V18C3.75 17.0054 4.14509 16.0516 4.84835 15.3483C5.55161 14.6451 6.50544 14.25 7.5 14.25H16.5C17.4946 14.25 18.4484 14.6451 19.1517 15.3483C19.8549 16.0516 20.25 17.0054 20.25 18V21" stroke="#111111" stroke-width="2"/>
<path id="Vector_2" d="M15.75 7.5C15.75 8.49456 15.3549 9.44839 14.6517 10.1517C13.9484 10.8549 12.9946 11.25 12 11.25C11.0054 11.25 10.0516 10.8549 9.34835 10.1517C8.64509 9.44839 8.25 8.49456 8.25 7.5C8.25 6.50544 8.64509 5.55161 9.34835 4.84835C10.0516 4.14509 11.0054 3.75 12 3.75C12.9946 3.75 13.9484 4.14509 14.6517 4.84835C15.3549 5.55161 15.75 6.50544 15.75 7.5Z" stroke="#111111" stroke-width="2"/>
</g>
</svg>
