<svg width="15" height="14" viewBox="0 0 15 14" fill="none" xmlns="http://www.w3.org/2000/svg">
<path id="Vector" d="M1.00792 13.7701C0.921301 13.7701 0.835914 13.7496 0.758703 13.7103C0.681492 13.6711 0.614633 13.6141 0.563598 13.5441C0.512563 13.4741 0.478816 13.3931 0.465039 13.3076C0.451261 13.2221 0.457769 13.1345 0.48424 13.052L1.41237 10.1565C1.49308 9.90621 1.63203 9.67867 1.81788 9.49262L11.0492 0.263639C11.1007 0.211707 11.1624 0.170762 11.2302 0.143293C11.6285 0.00756986 12.0569 -0.0138327 12.4667 0.0815256C12.8766 0.176884 13.2515 0.385173 13.549 0.682786C13.8465 0.980399 14.0547 1.35543 14.1499 1.76533C14.2451 2.17523 14.2235 2.60359 14.0876 3.00186C14.0598 3.06952 14.0189 3.13103 13.9673 3.18283L4.73546 12.4109C4.54918 12.5964 4.3217 12.7351 4.07159 12.816L1.1755 13.7435C1.03316 13.6198 0.945816 13.4447 0.932592 13.2567C0.919369 13.0686 0.981366 12.8829 1.105 12.7406C1.22864 12.5983 1.40382 12.5109 1.59189 12.4976C1.77997 12.4844 1.96558 12.5465 2.10792 12.6701L1.00792 13.7701ZM11.7308 1.13792L2.59562 10.2703C2.5334 10.3327 2.48681 10.4089 2.45973 10.4928L1.85763 12.3705L3.7359 11.7689C3.81969 11.7414 3.89582 11.6947 3.95826 11.6325L13.094 2.50104C13.1286 2.31445 13.1173 2.12222 13.0611 1.94096C13.0048 1.75971 12.9053 1.59488 12.7712 1.46069C12.637 1.32649 12.4721 1.22698 12.2908 1.17075C12.1096 1.11452 11.9174 1.10325 11.7308 1.13792Z" fill="#111111"/>
</svg>
